<?xml version="1.0" encoding="UTF-8"?>
<svg width="800" height="800" version="1.1" viewBox="0 0 211.67 211.67" xmlns="http://www.w3.org/2000/svg" xmlns:cc="http://creativecommons.org/ns#" xmlns:dc="http://purl.org/dc/elements/1.1/" xmlns:osb="http://www.openswatchbook.org/uri/2009/osb" xmlns:rdf="http://www.w3.org/1999/02/22-rdf-syntax-ns#">
 <defs>
  <filter id="filter1407" x="-.0018646" y="-.001392" width="1.0037" height="1.0028" color-interpolation-filters="sRGB">
   <feGaussianBlur stdDeviation="0.09592168"/>
  </filter>
 </defs>
 <metadata>
  <rdf:RDF>
   <cc:Work rdf:about="">
    <dc:format>image/svg+xml</dc:format>
    <dc:type rdf:resource="http://purl.org/dc/dcmitype/StillImage"/>
    <dc:title/>
    <dc:creator>
     <cc:Agent>
      <dc:title>Ryan Qian</dc:title>
     </cc:Agent>
    </dc:creator>
    <dc:rights>
     <cc:Agent>
      <dc:title>Ryan Qian</dc:title>
     </cc:Agent>
    </dc:rights>
   </cc:Work>
  </rdf:RDF>
 </metadata>
 <g>
  <rect width="211.67" height="211.67" ry="0" fill="#fff" stroke-width=".26458"/>
 </g>
 <g transform="translate(.00059628 52.917)" display="none" filter="url(#filter1407)" opacity=".99193">
  <path d="m92.05-25.253a79.375 79.375 0 0 0-64.386 91.952 79.375 79.375 0 0 0 91.952 64.386 79.375 79.375 0 0 0 64.386-91.952 79.375 79.375 0 0 0-91.952-64.386zm2.1736 13.05a66.146 66.146 0 0 1 0.12367-0.0218 66.146 66.146 0 0 1 76.627 53.655 66.146 66.146 0 0 1-53.655 76.627 66.146 66.146 0 0 1-76.627-53.655 66.146 66.146 0 0 1 53.531-76.605z" fill="#241c1c" fill-opacity=".97512" opacity=".96293" style="paint-order:normal"/>
 </g>
 <g transform="translate(.00059628 52.917)" display="none">
  <path d="m92.05-25.253a79.375 79.375 0 0 0-64.386 91.952 79.375 79.375 0 0 0 91.952 64.386 79.375 79.375 0 0 0 64.386-91.952 79.375 79.375 0 0 0-91.952-64.386zm1.1486 6.5141a72.76 72.76 0 0 1 84.29 59.02 72.76 72.76 0 0 1-59.02 84.29 72.76 72.76 0 0 1-84.29-59.02 72.76 72.76 0 0 1 59.02-84.29z" fill="#ff801e" stroke-width="1.1974"/>
  <rect transform="rotate(-36.5)" x="53.594" y="32.648" width=".14469" height=".15503" fill="#f55" stroke-width=".26458"/>
  <rect transform="rotate(-10)" x="127.43" y="135.61" width=".072347" height=".075448" fill="#999" stroke-width=".26458"/>
  <path d="m92.624-21.996a76.068 76.068 0 0 0-61.703 88.121 76.068 76.068 0 0 0 88.121 61.703 76.068 76.068 0 0 0 61.703-88.121 76.068 76.068 0 0 0-88.121-61.703zm1.1486 6.5141a69.453 69.453 0 0 1 80.458 56.338 69.453 69.453 0 0 1-56.338 80.458 69.453 69.453 0 0 1-80.458-56.338 69.453 69.453 0 0 1 56.338-80.458z" fill="#666" stroke-width="2.1481"/>
 </g>
 <g transform="translate(.00059628 52.917)">
  <g fill="#eb1847">
   <path d="m124.62 116.34c-7.3986 2.1918-15.124 3.0722-22.826 2.6012-7.702-0.47119-15.262-2.2864-22.338-5.3636l-5.2755 12.132c8.4916 3.6923 17.564 5.8704 26.806 6.4356 9.2425 0.56519 18.513-0.4912 27.391-3.1214 10.819-3.2795 7.5172-16.083-3.7573-12.684z" style="paint-order:normal"/>
   <path d="m169.64 5.7033c-6.0848-8.224-16.53-0.4243-10.634 7.8688 21.103 30.707 16.38 77.701-9.892 97.833-3.9931 3.0505 0.19136 7.9657 3.9356 5.3164 18.86-13.956 30.579-35.541 32.011-58.959 1.139-18.626-4.321-37.058-15.421-52.059z" style="paint-order:normal"/>
   <path d="m124.35-24.268c-4.4894-1.077-9.0642-1.7603-13.672-2.042-9.2415-0.56514-18.511 0.49093-27.388 3.1205-9.889 2.9095-5.7033 15.498 3.7569 12.684 7.3575-2.1791 15.038-3.0614 22.698-2.6074l0.12515 0.0077c7.7039 0.47132 15.266 2.2873 22.344 5.3658l5.276-12.132c-4.2434-1.8455-8.64-3.3165-13.14-4.396z" style="paint-order:normal"/>
   <circle transform="rotate(13.5)" cx="90.608" cy="95.147" r="6.6146" opacity=".9756" style="paint-order:normal"/>
   <circle transform="rotate(13.5)" cx="140.09" cy="-41.678" r="6.6146" opacity=".9756" style="paint-order:normal"/>
  </g>
  <flowRoot fill="#000000" font-family="sans-serif" font-size="40px" letter-spacing="0px" word-spacing="0px" style="line-height:1.25" xml:space="preserve"><flowRegion><rect x="432" y="411.78" width="130" height="64.223"/></flowRegion><flowPara/></flowRoot>
 </g>
 <g transform="translate(.00059628 52.917)" fill="#eb1847">
  <path d="m60.807-11.906c-0.67791 0.14757-1.4168 0.47281-2.1917 1.0188-18.859 13.956-30.577 35.54-32.009 58.958-1.0812 17.682 3.7486 35.131 13.736 49.688 0.52537 0.76493 1.1153 1.4677 1.8556 2.111 0.7195 0.57999 1.5162 1.0002 2.3843 1.3293 1.9887 0.75202 4.0479 1.2816 6.14 1.5833 3.0194 0.43542 6.1073 0.39619 9.1502-0.13404 15.83-2.7912 26.399-17.886 23.608-33.716-2.7912-15.83-17.886-26.399-33.716-23.608-3.6669 0.65858-7.1732 2.015-10.329 3.9957-0.39881-21.74 7.5973-43 23.113-54.89 3.8039-2.7517 1.9181-7.1328-1.7427-6.3359zm-8.7447 70.259c8.6343-1.5225 16.868 4.2428 18.39 12.877 1.5225 8.6343-4.2428 16.868-12.877 18.39-1.08 0.18738-2.1731 0.26201-3.2622 0.22446-1.1722-0.047-2.4485-0.29788-3.2878-0.92814-0.92138-0.83183-1.4975-1.6417-2.0394-2.6291-3.1687-5.7781-5.5322-11.983-7.1178-18.374-0.16803-0.75295-0.3207-1.5657-0.19981-2.2536 0.15355-0.80004 0.61384-1.4192 1.1306-2.0221 2.3694-2.758 5.634-4.6398 9.2631-5.2849z" style="paint-order:normal"/>
  <g>
   <path d="m96.226 44.791c2.6985-1.1455 5.8645 0.07568 6.9386 2.8034l10.742 27.278c0.84845 2.1546 0.52517 5.3058-2.1734 6.4513-2.6985 1.1455-5.279-1.087-6.1298-2.9482l-12.181-26.646c-1.2188-2.6662 0.10485-5.7932 2.8034-6.9386z" stroke-width=".29965"/>
   <path d="m89.763 29.567c2.6985-1.1455 5.7932 0.10485 6.9386 2.8034 1.1455 2.6985-0.10485 5.7932-2.8034 6.9386-2.6985 1.1455-5.7932-0.10485-6.9386-2.8034-1.1455-2.6985 0.10485-5.7932 2.8034-6.9386z" stroke-width=".38709"/>
   <path d="m123.14 35.518c6.8362-2.5784 13.025-5.2968 20.329-6.9558 3.4042-0.55296 5.9111-0.08893 6.5127 1.3623 1.2408 2.9078 0.16226 5.5412-2.7504 6.9993l-26.004 12.204c-2.2235 0.94065-5.4298 0.76921-6.9686-1.8463-1.5258-3.0495-0.3309-6.6502 2.4488-8.7282 1.9283-1.2823 1.9247-1.2993 6.432-3.0353z" stroke-width=".26831"/>
   <path d="m113.81 23.891c-2.2138-5.1282 5.3497-8.3677 7.7548-3.2917l13.778 28.814c3.4925 6.9727 8.6812 8.9697 13.622 7.4755 2.6975-0.83341 3.7096-1.1573 6.3231-2.0247 5.7896-1.8776 8.1931 3.6746 2.6669 6.503-2.1724 1.1676-3.9636 1.9728-5.7596 2.7825-13.373 6.0846-21.834-1.0824-25.977-10.962z" stroke-width=".31663"/>
  </g>
 </g>
 <g transform="translate(.00059628 52.917)" display="none">
  <path d="m58.616-10.887c-18.859 13.956-30.577 35.54-32.01 58.958-1.139 18.626 4.321 37.058 15.421 52.059l10.633-7.8683c-21.103-30.707-16.382-77.698 9.8891-97.831 4.5083-3.2612 1.0248-8.8111-3.934-5.3171z" display="inline" fill="#f24632" style="paint-order:normal"/>
 </g>
</svg>
