<?xml version="1.0" encoding="UTF-8"?>
<svg width="1e3" height="1e3" version="1.1" viewBox="0 0 264.58 264.58" xmlns="http://www.w3.org/2000/svg" xmlns:cc="http://creativecommons.org/ns#" xmlns:dc="http://purl.org/dc/elements/1.1/" xmlns:osb="http://www.openswatchbook.org/uri/2009/osb" xmlns:rdf="http://www.w3.org/1999/02/22-rdf-syntax-ns#">
 <defs>
  <filter id="filter1407" x="-.0018646" y="-.001392" width="1.0037" height="1.0028" color-interpolation-filters="sRGB">
   <feGaussianBlur stdDeviation="0.09592168"/>
  </filter>
 </defs>
 <metadata>
  <rdf:RDF>
   <cc:Work rdf:about="">
    <dc:format>image/svg+xml</dc:format>
    <dc:type rdf:resource="http://purl.org/dc/dcmitype/StillImage"/>
    <dc:title/>
    <dc:creator>
     <cc:Agent>
      <dc:title>Ryan Qian</dc:title>
     </cc:Agent>
    </dc:creator>
    <dc:rights>
     <cc:Agent>
      <dc:title>Ryan Qian</dc:title>
     </cc:Agent>
    </dc:rights>
   </cc:Work>
  </rdf:RDF>
 </metadata>
 <g>
  <rect width="264.58" height="264.58" ry="0" fill="#eb1847" stroke-width=".33073"/>
 </g>
 <g transform="translate(.00059628 52.917)" display="none" filter="url(#filter1407)" opacity=".99193">
  <path d="m115.06-18.337a99.219 99.219 0 0 0-80.482 114.94 99.219 99.219 0 0 0 114.94 80.482 99.219 99.219 0 0 0 80.482-114.94 99.219 99.219 0 0 0-114.94-80.482zm2.7169 16.312a82.682 82.682 0 0 1 0.15457-0.02725 82.682 82.682 0 0 1 95.784 67.069 82.682 82.682 0 0 1-67.068 95.784 82.682 82.682 0 0 1-95.784-67.069 82.682 82.682 0 0 1 66.914-95.757z" fill="#241c1c" fill-opacity=".97512" opacity=".96293" style="paint-order:normal"/>
 </g>
 <g transform="translate(.00059628 52.917)" display="none">
  <path d="m115.06-18.337a99.219 99.219 0 0 0-80.482 114.94 99.219 99.219 0 0 0 114.94 80.482 99.219 99.219 0 0 0 80.482-114.94 99.219 99.219 0 0 0-114.94-80.482zm1.4358 8.1426a90.95 90.951 0 0 1 105.36 73.775 90.95 90.951 0 0 1-73.775 105.36 90.95 90.951 0 0 1-105.36-73.775 90.95 90.951 0 0 1 73.775-105.36z" fill="#ff801e" stroke-width="1.4968"/>
  <rect transform="matrix(.80386 -.59482 .59482 .80386 0 0)" x="59.124" y="51.445" width=".18087" height=".19379" fill="#f55" stroke-width=".33073"/>
  <rect transform="rotate(-10)" x="156.99" y="182.54" width=".090434" height=".094309" fill="#999" stroke-width=".33073"/>
  <path d="m115.78-14.266a95.084 95.085 0 0 0-77.129 110.15 95.084 95.085 0 0 0 110.15 77.129 95.084 95.085 0 0 0 77.129-110.15 95.084 95.085 0 0 0-110.15-77.129zm1.4358 8.1426a86.816 86.816 0 0 1 100.57 70.422 86.816 86.816 0 0 1-70.422 100.57 86.816 86.816 0 0 1-100.57-70.422 86.816 86.816 0 0 1 70.422-100.57z" fill="#666" stroke-width="2.6851"/>
 </g>
 <g transform="translate(.00059628 52.917)">
  <g fill="#fff">
   <path d="m155.78 158.65c-9.2482 2.7398-18.905 3.8402-28.532 3.2516-9.6275-0.58898-19.078-2.858-27.923-6.7044l-6.5944 15.165c10.614 4.6154 21.955 7.338 33.508 8.0445 11.553 0.70649 23.141-0.614 34.239-3.9017 13.523-4.0993 9.3964-20.104-4.6967-15.855z" style="paint-order:normal"/>
   <path d="m212.05 20.358c-7.606-10.28-20.662-0.53038-13.292 9.836 26.379 38.384 20.475 97.126-12.365 122.29-4.9914 3.8132 0.23919 9.9572 4.9194 6.6455 23.574-17.445 38.223-44.426 40.014-73.699 1.4237-23.283-5.4012-46.323-19.276-65.073z" style="paint-order:normal"/>
   <path d="m155.44-17.106c-5.6117-1.3462-11.33-2.2003-17.09-2.5525-11.552-0.70643-23.138 0.61366-34.235 3.9006-12.361 3.6369-7.1292 19.372 4.6962 15.855 9.1969-2.7239 18.798-3.8268 28.373-3.2593l0.15644 0.00963c9.6299 0.58915 19.082 2.8592 27.93 6.7073l6.595-15.165c-5.3042-2.3069-10.8-4.1456-16.424-5.495z" style="paint-order:normal"/>
   <ellipse transform="rotate(13.5)" cx="116.35" cy="131.8" rx="8.2682" ry="8.2682" opacity=".9756" style="paint-order:normal"/>
   <ellipse transform="rotate(13.5)" cx="178.2" cy="-39.234" rx="8.2682" ry="8.2682" opacity=".9756" style="paint-order:normal"/>
  </g>
  <flowRoot fill="#000000" font-family="sans-serif" font-size="40px" letter-spacing="0px" word-spacing="0px" style="line-height:1.25" xml:space="preserve"><flowRegion><rect x="432" y="411.78" width="130" height="64.223"/></flowRegion><flowPara/></flowRoot>
 </g>
 <g transform="translate(.00059628 52.917)" fill="#fff">
  <path d="m76.009-1.6533c-0.84739 0.18447-1.771 0.59102-2.7396 1.2734-23.573 17.445-38.221 44.426-40.011 73.697-1.3515 22.102 4.6857 43.914 17.171 62.111 0.65671 0.95616 1.3941 1.8347 2.3195 2.6388 0.89937 0.72498 1.8952 1.2502 2.9804 1.6617 2.4858 0.94002 5.0599 1.602 7.675 1.9791 3.7743 0.54427 7.6341 0.49523 11.438-0.16755 19.787-3.489 32.999-22.358 29.51-42.145-3.489-19.787-22.358-32.999-42.145-29.51-4.5836 0.82322-8.9665 2.5188-12.911 4.9946-0.49851-27.175 9.4966-53.75 28.891-68.613 4.7548-3.4396 2.3976-8.916-2.1783-7.9198zm-10.931 87.823c10.793-1.9031 21.085 5.3035 22.988 16.096 1.9031 10.793-5.3035 21.085-16.096 22.988-1.3499 0.23423-2.7164 0.32752-4.0777 0.28058-1.4653-0.0587-3.0606-0.37235-4.1098-1.1602-1.1517-1.0398-1.8719-2.0522-2.5493-3.2864-3.9609-7.2226-6.9152-14.979-8.8972-22.968-0.21004-0.94119-0.40088-1.9571-0.24976-2.8169 0.19193-1 0.7673-1.774 1.4132-2.5276 2.9617-3.4475 7.0425-5.7997 11.579-6.6061z" style="paint-order:normal"/>
  <g>
   <path d="m120.28 69.219c3.3732-1.4318 7.3306 0.0946 8.6733 3.5042l13.427 34.097c1.0606 2.6932 0.65646 6.6322-2.7167 8.0641-3.3732 1.4318-6.5988-1.3588-7.6623-3.6852l-15.226-33.307c-1.5235-3.3328 0.13106-7.2415 3.5042-8.6733z" stroke-width=".37457"/>
   <path d="m112.2 50.188c3.3732-1.4318 7.2414 0.13106 8.6733 3.5042 1.4318 3.3732-0.13106 7.2415-3.5042 8.6733-3.3732 1.4318-7.2414-0.13106-8.6733-3.5042-1.4318-3.3732 0.13106-7.2415 3.5042-8.6733z" stroke-width=".48387"/>
   <path d="m153.92 57.627c8.5452-3.2231 16.281-6.621 25.411-8.6947 4.2553-0.6912 7.3889-0.11116 8.1409 1.7028 1.551 3.6347 0.20283 6.9265-3.4379 8.7491l-32.504 15.255c-2.7793 1.1758-6.7872 0.96151-8.7108-2.3079-1.9073-3.8119-0.41361-8.3127 3.061-10.91 2.4103-1.6028 2.4059-1.6241 8.04-3.7941z" stroke-width=".33539"/>
   <path d="m142.26 43.093c-2.7672-6.4103 6.6872-10.46 9.6935-4.1146l17.223 36.018c4.3656 8.7159 10.852 11.212 17.027 9.3443 3.3718-1.0418 4.637-1.4466 7.9039-2.5309 7.237-2.347 10.241 4.5932 3.3336 8.1288-2.7155 1.4596-4.9544 2.466-7.1994 3.4781-16.716 7.6058-27.292-1.353-32.471-13.703z" stroke-width=".39579"/>
  </g>
 </g>
 <g transform="translate(.00059628 52.917)" display="none">
  <path d="m73.27-0.37995c-23.573 17.445-38.221 44.425-40.012 73.697-1.4237 23.283 5.4012 46.323 19.276 65.073l13.292-9.8354c-26.378-38.384-20.477-97.123 12.361-122.29 5.6354-4.0766 1.2811-11.014-4.9174-6.6464z" display="inline" fill="#f24632" style="paint-order:normal"/>
 </g>
</svg>
