<?xml version="1.0" encoding="UTF-8"?>
<svg width="340" height="340" version="1.1" viewBox="0 0 89.958 89.958" xmlns="http://www.w3.org/2000/svg" xmlns:cc="http://creativecommons.org/ns#" xmlns:dc="http://purl.org/dc/elements/1.1/" xmlns:rdf="http://www.w3.org/1999/02/22-rdf-syntax-ns#">
 <metadata>
  <rdf:RDF>
   <cc:Work rdf:about="">
    <dc:format>image/svg+xml</dc:format>
    <dc:type rdf:resource="http://purl.org/dc/dcmitype/StillImage"/>
    <dc:title/>
   </cc:Work>
  </rdf:RDF>
 </metadata>
 <g transform="translate(0 -207.04)">
  <path d="m43.806 207.04c-28.529-0.0848-51.097 31.211-41.605 58.287 7.5672 28.169 44.923 41.196 68.365 23.826 24.689-15.553 26.089-55.081 2.5626-72.341-7.8693-6.2766-17.894-9.7687-27.959-9.7436-0.45575-0.0173-0.91033-0.0266-1.3632-0.0279zm13.635 9.2146c5.8546 2.3994-3.2063 6.3591-3.6803 9.8682-2.9918 2.0021 2.2558 4.8438-2.0809 5.3123-4.2965 2.2863-2.931 9.061-4.5531 13.256-0.60575 3.9513-1.022 8.0523-1.2846 12.234 3.9204 2.338 9.7575-0.22153 13.386-2.5693 2.5428-2.7361 4.3876-6.124 7.1404-8.7145 2.3847-2.9766-0.24905 3.4418-0.401 4.605-1.1904 4.3278-2.3454 10.089-8.1253 9.7452-3.5711 1.5862-10.475-1.4064-11.699 3.2999 0.12382 2.8429-0.43402 6.6314 0.53897 8.995 6.9653 0.0432 14.284-0.80029 20.667 2.6458 1.7147 1.225 4.7214 2.2835 5.4667 4.1632-0.80406 3.729-3.9747 6.9339-7.5352 8.3006-1.72 0.6389-6.3903 3.5178-2.6654 0.2113 3.4451-2.7423 7.5184-8.3982 1.7099-11.188-4.7154-2.8477-10.613-4.0098-16.085-3.1614-3.5198 2.6697 1.5958 7.502 1.1906 10.534-4.4091 1.3418-9.0254-0.25774-13.478-0.7352 2.743-1.2086 8.2215 0.31318 8.4385-3.5722-0.92972-4.5182-2.0438-9.0581-1.8407-13.724 0.97305-4.27-1.9233-6.2778-5.8051-6.6794-2.0058-1.0009-3.9833-2.3294-0.61803-1.8419 3.5125 1.0226 8.2414 1.2152 7.0443-3.985 0.12267-4.4602 0.96089-9.0157 1.1229-13.347 0.26238-2.6111 2.3079-5.9983 2.3863-7.8739-3.8441-1.6752-8.1653-2.227-11.974-4.1637-2.3017-0.34038-5.9-3.1233-1.2211-2.2511 4.7193 0.70358 9.2204 2.3664 13.881 3.3681 3.1874-1.8603 2.5717-6.4064 5.7623-8.4897 1.5927-1.2367 2.4101-3.4747 4.3117-4.2433zm-19.388 58.795c-2.6278 1.7522-6.0683 3.6489-8.2638 6.375-2.7968 3.1022-8.3261 3.5493-12.102 2.5812-2.4724-2.8461 5.9633-2.8118 7.7135-4.4923 4.2042-1.5147 8.351-3.2446 12.652-4.4639z" fill="#162d50" stroke-width="5.2313" style="paint-order:markers stroke fill"/>
 </g>
</svg>
