<?xml version="1.0" encoding="UTF-8" standalone="no"?>
<svg
   xmlns:dc="http://purl.org/dc/elements/1.1/"
   xmlns:cc="http://creativecommons.org/ns#"
   xmlns:rdf="http://www.w3.org/1999/02/22-rdf-syntax-ns#"
   xmlns:svg="http://www.w3.org/2000/svg"
   xmlns="http://www.w3.org/2000/svg"
   xmlns:sodipodi="http://sodipodi.sourceforge.net/DTD/sodipodi-0.dtd"
   xmlns:inkscape="http://www.inkscape.org/namespaces/inkscape"
   width="600"
   height="600"
   version="1.1"
   viewBox="0 0 317.5 317.5"
   id="svg9451"
   sodipodi:docname="mask-icon.svg"
   inkscape:version="0.92.4 5da689c313, 2019-01-14">
  <defs
     id="defs9455" />
  <sodipodi:namedview
     pagecolor="#ffffff"
     bordercolor="#666666"
     borderopacity="1"
     objecttolerance="10"
     gridtolerance="10"
     guidetolerance="10"
     inkscape:pageopacity="0"
     inkscape:pageshadow="2"
     inkscape:window-width="1366"
     inkscape:window-height="728"
     id="namedview9453"
     showgrid="false"
     inkscape:pagecheckerboard="true"
     inkscape:zoom="0.83666667"
     inkscape:cx="300"
     inkscape:cy="300"
     inkscape:window-x="1920"
     inkscape:window-y="20"
     inkscape:window-maximized="1"
     inkscape:current-layer="svg9451" />
  <metadata
     id="metadata9447">
    <rdf:RDF>
      <cc:Work
         rdf:about="">
        <dc:format>image/svg+xml</dc:format>
        <dc:type
           rdf:resource="http://purl.org/dc/dcmitype/StillImage" />
        <dc:title></dc:title>
      </cc:Work>
    </rdf:RDF>
  </metadata>
  <path
     d="m85.45 213.81c-8.9911 19.233-21.558 36.984-37.266 51.318 10.886 11.328 23.527 20.967 37.333 28.467-0.10632-26.511-0.05738-53.176-0.06718-79.783zm89.641-9.8992c0.88244 0.1784 1.7645 0.35699 2.6469 0.53536-2.2324 7.2623-0.11697 13.56 8.1175 18.283 9.4526 6.1574 4e-3 12.075-3.9698 2.1094-8.0148-13.591-11.597 1.7994-19.861 6.5204-4.336-8.1556 14.874-15.187 13.067-27.449zm-20.682-34.341v12.714h17.426c2.6591 0.2271-1.9222-8.2767 5.542-12.714zm37.81-0.26769c-1.3903-0.0198-2.9303 0.10918-4.499 0.26769-1.1486 6.3104-15.003 15.064-1.0387 12.714 4.941-0.49454 13.42 2.549 10.777-5.5304 1.7595-5.9902-1.0679-7.3925-5.239-7.4518zm3.8024-16.963c-0.43215 5.9256-12.119 15.011-0.35967 12.596 3.321-0.24812 2.445-11.739 0.35967-12.596zm-41.612 0v9.0033c-1.2802 6.876 8.9387 2.2531 13.195 3.5926 9.9865 1.8757 16.967-1.7745 19.165-12.596zm-55.235-48.01 1.6154 1.017c5.1127 6.2453 27.473 12.283 19.784 20.578-4.1308-8.1746-27.952-14.013-21.399-21.595zm-20.701-0.24598c0.38214 0.88207 0.76407 1.7638 1.1462 2.6458-3.8926 7.3629-18.179 16.637-25.431 19.758-3.7237-9.6605 18.202-14.318 24.285-22.404zm42.1-28.467c0.59658 0.73465 1.1935 1.4699 1.7901 2.2045 0.57907 7.927-16.635 13.344-23.499 18.675-4.6267-8.6186 16.895-12.526 21.709-20.879zm-62.918 0c4.1747 5.724 26.923 12.978 19.436 20.066-3.0866-5.3213-26.993-12.804-19.436-20.066zm33.578-32.43v18.565h42.945v60.754c3.3428 13.269-7.7539 19.524-20.219 16.547-15.963-8.9514 11.606-2.1161 14.753-8.4646v-63.188h-37.479v94.695h29.528c6.7173-1.1378 11.013 0.14549 8.9806 7.7576h-38.508v32.161h36.891c6.5903-1.0645 11.077-0.0254 8.9806 7.5962h-40.263c-0.26693 8.817 12.673 23.972 19.846 33.52 3.8908 10.99 27.949 16.26 18.968 27.41-19.476-14.538-33.79-35.083-44.421-56.711v78.042c50.473 39.699 141.53 18.756 182.85-32.062-17.351-17.09-27.461-40.052-33.946-63.188-4.8049 25.284-18.929 48.406-38.751 64.733-9.5409 4.8983-25.153 25.618-32.606 13.284 5.4923-8.2969 24.104-14.881 32.675-25.339 25.549-22.654 35.573-57.844 33.967-91.112-1.1585-6.7527 0.19371-10.995 7.8031-8.9805-8e-3 8.6683 0.0877 17.341-0.37311 26.002 4.1236 27.703 15.164 55.748 35.202 75.968 52.145-52.56 42.714-159.61-18.512-207.98h-44.929v23.954h47.199c5.2474 0.30707 13.397-2.2876 10.777 5.887h-48.996c-6.5157-1.0214-11.114-0.12505-8.9806 7.5026 1.4911 16.764-5.0972 32.611-9.5923 48.469h85.551c5.4293 0.86118 11.104-1.9754 15.746 1.4728 1.6403 9.5362-6.3744 23.102-9.2139 33.891-4.9427 5.8833-5.7156 29.613-15.794 22.078-0.27186-12.815 13.47-31.731 15.563-47.752h-85.551c-6.9835-3.9317-17.939 7.1978-10.019 8.78v39.57h-22.845c-8.6313-0.63405-16.819-1.0904-18.28 9.8621h35.222c12.533-3.1442 13.31 5.1608 11.005 16.192-2.1355 12.621 3.7063 39.606-16.787 35.672-9.6775-3.1855-0.37607-7.4449 6.2331-4.9258 10.047-8.9107 4.6945-28.576 7.1353-41.828h-30.589c-6.9194 0.97605-16.528-3.3143-19.274 5.7039 0.40415 8.5995-0.91382 17.482 0.8816 25.86 5.4944 2.507 12.148 0.67183 18.147 1.233 6.9438 1.9011 20.902-4.7787 20.813 4.2778-8.7117 1.0724-17.529 0.4084-26.292 0.59425-8.5244 1.0746-20.08-0.29833-17.077-12.302-0.95446-4.4225 2.6469-20.438-3.5378-11.389-13.192 7.2369 1.5187-9.3869 5.9024-14.155 5.5748-7.3089 12.68-18.18-1.3229-14.794v-39.57h37.459c7.1655-11.529 10.84-26.956 14.872-40.646 4.0773-10.903 3.6251-22.384 3.4799-33.793h-45.201c-5.2474-0.30707-13.397 2.2876-10.777-5.887h55.976v-23.954zm-33.156 0c-63.537 52.691-70.612 155.95-14.548 216.64 16.299-13.498 28.942-31.131 37.905-50.221h-32.411c-6.5903 1.0645-11.077 0.0255-8.9805-7.5962h45.408v-32.161h-28.505c-6.7173 1.1378-11.013-0.14549-8.9805-7.7576h37.485c-0.0011-31.564-0.0016-63.13-0.0011-94.695h-37.331v60.839c-0.703 4.9717 2.8058 14.155-5.3494 11.675v-78.158h42.681v-18.565zm156.54-27.196v19.999h32.826c-5.0577-1.0888-18.706-19.719-32.826-19.999zm-42.796-10.039v30.038h27.449c7.2793 2.0146 8.1799-2.3498 7.184-8.6101 5.6653-20.734-18.356-20.112-34.633-21.427zm-11.599-0.74518c-0.4385-0.019036-0.92674 0.00964-1.4707 0.090954-32.852-0.016624-65.575 10.919-91.816 30.692h93.88c5.6177-0.04302 1.3764-9.9458 2.6944-14.289-1.4251-5.1862 3.2857-16.208-3.2918-16.494zm-5.4489-5.2349c1.3234-0.0074063 2.6498 0.0038482 3.9781 0.034107 10.864 0.040846 21.737 1.1996 32.364 3.4582 71.3 13.501 127.75 81.905 126.39 155.29 2.0359 84.879-73.92 160.72-158.75 158.75-84.895 1.9771-160.75-73.819-158.75-158.75-1.8632-83.625 71.396-158.32 154.77-158.78z"
     fill="#161650"
     stroke-width="1.5875"
     style="paint-order:markers stroke fill;fill:#162d50"
     id="path9449" />
</svg>
